<svg width="404" height="235" viewBox="0 0 404 235" fill="none" xmlns="http://www.w3.org/2000/svg">
<path d="M306.064 51.8712C306.096 50.8131 305.931 49.7586 305.577 48.7683C305.223 47.778 304.687 46.8712 304.001 46.0998C303.315 45.3284 302.492 44.7077 301.579 44.273C300.666 43.8384 299.681 43.5984 298.68 43.5668L277.652 42.903L259.824 27.1665C259.751 26.3324 259.458 25.5368 258.978 24.8702C258.498 24.2037 257.851 23.6929 257.11 23.3961C256.369 23.0992 255.564 23.0282 254.787 23.1911C254.01 23.3541 253.291 23.7444 252.713 24.3176C252.136 24.8909 251.722 25.6241 251.519 26.4338C251.316 27.2435 251.332 28.0972 251.565 28.8977C251.799 29.6982 252.24 30.4133 252.839 30.9617C253.438 31.5102 254.17 31.8698 254.953 31.9998L273.641 54.5062L296.938 59.5044C298.023 59.7374 299.144 59.717 300.222 59.4448C301.3 59.1726 302.309 58.655 303.178 57.9282C304.047 57.2014 304.755 56.2829 305.254 55.2367C305.752 54.1906 306.029 53.042 306.064 51.8712Z" fill="#9E616A"/>
<path d="M277.503 57.4399L280.256 42.3731L280.346 42.2994C280.931 41.818 281.639 41.534 282.379 41.4844C283.118 41.4347 283.855 41.6218 284.492 42.0212L284.652 42.1203L303.218 42.6489L305.391 44.0009L306.645 43.6772C310.437 42.6989 314.268 42.0357 316.605 43.7899C317.926 44.7806 318.674 46.4301 318.894 48.8302C319.053 50.5534 318.842 52.2923 318.279 53.9179C317.715 55.5436 316.813 57.0146 315.639 58.2219C314.465 59.4293 313.05 60.3421 311.497 60.893C309.944 61.4438 308.294 61.6186 306.669 61.4042L305.735 61.2703L302.677 59.9646L297.948 60.5583L295.118 59.3291L277.503 57.4399Z" fill="#3F3D56"/>
<path d="M205.609 224.012C205.672 227.14 205.263 230.26 204.399 233.253C204.369 233.361 204.333 233.47 204.296 233.579H186.486C186.741 232.254 187.145 230.965 187.69 229.742C189.172 226.416 191.592 223.57 193.982 220.744C197.273 216.849 200.485 212.986 200.993 207.921C202.298 210.024 203.339 212.296 204.091 214.681C203.17 215.042 202.326 215.589 201.604 216.293C201.405 216.491 201.193 216.779 201.296 217.054C201.393 217.284 201.659 217.361 201.895 217.412C202.463 217.527 203.032 217.642 203.601 217.751C204.048 217.847 204.502 217.936 204.956 218.026C205.355 219.994 205.573 221.999 205.609 224.012Z" fill="#E6E6E6"/>
<path d="M220.57 221.94C217.714 223.775 215.899 226.615 214.417 229.793C213.128 230.104 211.937 230.765 210.963 231.712C210.757 231.91 210.546 232.198 210.654 232.473C210.745 232.703 211.017 232.78 211.253 232.831C211.816 232.946 212.391 233.061 212.953 233.17C212.899 233.304 212.844 233.445 212.79 233.579H193.915C194.772 232.357 195.721 231.211 196.752 230.151C196.976 229.914 197.206 229.691 197.442 229.46C199.848 227.162 202.611 225.319 205.609 224.012C210.332 221.924 215.497 221.209 220.57 221.94Z" fill="#E6E6E6"/>
<path d="M197.061 233.579H180.255C180.163 232.156 180.172 230.728 180.279 229.307C180.643 224.907 181.905 220.643 183.978 216.809C186.052 212.974 188.886 209.661 192.288 207.096C191.417 210.377 191.864 213.639 192.772 216.913C192.645 216.958 192.518 216.996 192.403 217.047C191.482 217.408 190.638 217.955 189.916 218.659C189.717 218.857 189.505 219.145 189.608 219.42C189.699 219.65 189.971 219.727 190.207 219.778C190.775 219.893 191.344 220.008 191.907 220.117C192.36 220.213 192.814 220.302 193.268 220.398C193.48 220.437 193.691 220.482 193.903 220.526C193.933 220.603 193.952 220.673 193.982 220.744C195.047 223.845 196.208 226.973 196.753 230.151C196.887 230.949 196.98 231.754 197.031 232.562C197.049 232.901 197.061 233.24 197.061 233.579Z" fill="#E6E6E6"/>
<path d="M124.108 205.937C124.288 214.976 123.108 223.989 120.613 232.637C120.525 232.951 120.42 233.265 120.315 233.579H68.8578C69.5934 229.75 70.7612 226.028 72.3362 222.493C76.6184 212.884 83.6099 204.662 90.514 196.495C100.022 185.242 109.304 174.082 110.772 159.448C114.541 165.522 117.549 172.087 119.721 178.978C117.062 180.02 114.621 181.602 112.537 183.635C111.961 184.207 111.349 185.039 111.646 185.833C111.926 186.499 112.695 186.72 113.376 186.868C115.019 187.201 116.662 187.533 118.305 187.848C119.599 188.125 120.91 188.383 122.221 188.642C123.373 194.33 124.005 200.121 124.108 205.937Z" fill="#E6E6E6"/>
<path d="M167.333 199.95C159.083 205.253 153.84 213.457 149.557 222.64C145.831 223.538 142.391 225.449 139.577 228.184C138.983 228.756 138.371 229.588 138.686 230.382C138.948 231.048 139.734 231.269 140.416 231.417C142.041 231.75 143.702 232.082 145.327 232.396C145.17 232.784 145.013 233.191 144.856 233.579H90.3218C92.7973 230.05 95.5388 226.737 98.5193 223.675C99.166 222.991 99.8302 222.345 100.512 221.68C107.464 215.038 115.446 209.713 124.108 205.937C137.755 199.906 152.678 197.839 167.333 199.95Z" fill="#E6E6E6"/>
<path d="M99.4108 233.579H50.8547C50.5895 229.468 50.6129 225.343 50.9247 221.236C52.8648 195.867 65.9214 171.698 85.62 157.064C83.1031 166.543 84.3965 175.967 87.0183 185.427C86.6513 185.556 86.2842 185.667 85.9521 185.815C83.2929 186.856 80.8524 188.438 78.7684 190.471C78.1915 191.044 77.5798 191.876 77.8769 192.67C78.1391 193.335 78.9256 193.557 79.6073 193.705C81.2503 194.037 82.8933 194.37 84.5188 194.684C85.8298 194.961 87.1407 195.22 88.4515 195.497C89.0633 195.608 89.6751 195.737 90.2868 195.867C90.3742 196.088 90.4267 196.292 90.514 196.495C93.5903 205.456 96.9462 214.492 98.5193 223.675C98.9087 225.98 99.1772 228.305 99.3234 230.641C99.3758 231.62 99.4108 232.6 99.4108 233.579Z" fill="#E6E6E6"/>
<path d="M310.436 205.937C310.616 214.976 309.436 223.989 306.94 232.637C306.853 232.951 306.748 233.265 306.643 233.579H255.185C255.921 229.75 257.089 226.028 258.664 222.493C262.946 212.884 269.938 204.662 276.842 196.495C286.35 185.242 295.631 174.082 297.1 159.448C300.869 165.522 303.877 172.087 306.049 178.978C303.39 180.02 300.949 181.602 298.865 183.635C298.288 184.207 297.676 185.039 297.974 185.833C298.253 186.499 299.022 186.72 299.704 186.868C301.347 187.201 302.99 187.533 304.633 187.848C305.926 188.125 307.237 188.383 308.548 188.642C309.7 194.33 310.333 200.121 310.436 205.937Z" fill="#E6E6E6"/>
<path d="M353.661 199.95C345.411 205.253 340.167 213.457 335.885 222.64C332.159 223.538 328.718 225.449 325.905 228.184C325.31 228.756 324.699 229.588 325.013 230.382C325.275 231.048 326.062 231.269 326.744 231.417C328.369 231.75 330.03 232.082 331.655 232.396C331.498 232.784 331.34 233.191 331.183 233.579H276.649C279.125 230.05 281.866 226.737 284.847 223.675C285.494 222.991 286.158 222.345 286.84 221.68C293.791 215.038 301.774 209.713 310.436 205.937C324.082 199.906 339.005 197.839 353.661 199.95Z" fill="#E6E6E6"/>
<path d="M285.738 233.579H237.182C236.917 229.468 236.941 225.343 237.252 221.236C239.192 195.867 252.249 171.698 271.948 157.064C269.431 166.543 270.724 175.967 273.346 185.427C272.979 185.556 272.612 185.667 272.28 185.815C269.621 186.856 267.18 188.438 265.096 190.471C264.519 191.044 263.907 191.876 264.205 192.67C264.467 193.335 265.253 193.557 265.935 193.705C267.578 194.037 269.221 194.37 270.846 194.684C272.157 194.961 273.468 195.22 274.779 195.497C275.391 195.608 276.003 195.737 276.614 195.867C276.702 196.088 276.754 196.292 276.842 196.495C279.918 205.456 283.274 214.492 284.847 223.675C285.236 225.98 285.505 228.305 285.651 230.641C285.703 231.62 285.738 232.6 285.738 233.579Z" fill="#E6E6E6"/>
<path d="M203.122 56.4318C203.118 66.264 199.764 75.7656 193.674 83.1975C187.585 90.6294 179.167 95.4944 169.962 96.9018C160.757 98.3092 151.381 96.165 143.549 90.8617C135.717 85.5584 129.954 77.4507 127.314 68.0227C124.675 58.5947 125.335 48.4772 129.175 39.5221C133.016 30.5671 139.778 23.3735 148.225 19.2582C156.672 15.143 166.238 14.3813 175.173 17.1127C184.108 19.844 191.813 25.8857 196.879 34.1317C196.297 34.6776 195.751 35.2652 195.245 35.8904C195.112 36.0502 194.979 36.2229 194.852 36.3892C194.665 36.6322 194.489 36.8752 194.32 37.1246C194.12 37.4124 193.933 37.7066 193.751 38.0072C192.854 39.4802 192.169 41.0858 191.719 42.7716C192.894 41.2808 194.275 39.9852 195.814 38.9281C195.846 38.9051 195.881 38.8858 195.917 38.8705C196.068 38.7682 196.219 38.6658 196.377 38.5635C197.049 38.1303 197.746 37.7416 198.464 37.3996C198.524 37.374 198.585 37.342 198.645 37.3165C201.596 43.2044 203.134 49.7685 203.122 56.4318Z" fill="black"/>
<path d="M182.463 233.605C181.658 232.901 180.872 232.178 180.103 231.424C173.968 225.327 169.148 217.904 165.971 209.661C163.371 203.011 161.85 195.946 161.471 188.761C161.38 187.06 161.362 185.365 161.404 183.671C161.514 179.251 162.092 174.857 163.128 170.573C164.344 165.598 166.171 160.821 168.083 156.101C169.027 153.767 170.007 151.426 170.95 149.066C173.83 141.891 176.419 134.543 176.818 126.709C177.312 116.615 174.521 106.646 168.912 98.461C168.228 97.4634 169.801 96.5041 170.478 97.4953C171.174 98.4994 171.827 99.5354 172.438 100.603C177.345 109.197 179.45 119.255 178.434 129.235C177.702 136.033 175.524 142.422 173.043 148.689C171.767 151.938 170.406 155.148 169.123 158.378C168.736 159.35 168.355 160.322 167.986 161.307C166.547 165.002 165.384 168.81 164.507 172.697C163.596 176.995 163.156 181.389 163.195 185.794C163.207 186.958 163.243 188.115 163.316 189.273C163.794 196.938 165.607 204.444 168.664 211.413C172.164 219.458 177.318 226.577 183.751 232.249C184.653 233.035 183.358 234.385 182.463 233.605Z" fill="#3F3D56"/>
<path d="M180.974 57.8898C178.494 54.9992 174.211 55.0376 170.787 55.1079C169.898 55.1271 169.002 55.1783 168.113 55.2486C168.47 55.0887 168.827 54.9353 169.178 54.7754C170.966 53.9825 172.702 53.0638 174.374 52.0255C175.554 51.258 176.849 50.3435 177.544 49.0389C179.74 44.9396 179.311 38.8833 175.627 35.9159C173.086 33.8631 169.91 33.6904 166.752 34.0677C166.758 33.944 166.742 33.8203 166.703 33.7032C165.466 29.914 165.049 25.8799 165.481 21.8976C165.481 21.6435 165.385 21.3999 165.215 21.2201C165.045 21.0404 164.814 20.9391 164.574 20.9384C164.335 20.9434 164.107 21.0461 163.938 21.2249C163.768 21.4037 163.671 21.6448 163.667 21.8976C163.224 26.0531 163.662 30.2606 164.949 34.2148C164.967 34.2595 164.985 34.2916 165.003 34.3299C163.473 34.5985 161.979 34.9439 160.593 35.2125C158.76 35.5706 156.929 35.9287 155.1 36.2869C154.211 32.0149 153.271 27.7557 152.281 23.5092C152.003 22.3133 150.248 22.8185 150.533 24.0209C151.519 28.2161 152.448 32.422 153.322 36.6386C148.591 37.5595 143.862 38.4847 139.135 39.4141C137.986 39.6379 138.476 41.4861 139.619 41.2623C144.314 40.3478 149.008 39.429 153.703 38.506C156.28 51.1429 158.371 63.8758 159.976 76.7046C160.085 77.5871 160.182 78.4696 160.285 79.3586C155.776 80.1159 151.215 80.4753 146.649 80.4329C145.475 80.4202 145.475 82.3388 146.649 82.3515C151.29 82.3934 155.925 82.0276 160.509 81.2579C160.914 84.7881 161.295 88.3247 161.628 91.8676C161.743 93.0827 163.558 93.0955 163.443 91.8676C163.104 88.2223 162.711 84.577 162.287 80.9382C163.787 80.6568 165.282 80.3306 166.758 79.9597C168.788 79.4757 170.793 78.8823 172.765 78.1819C173.606 82.3323 174.449 86.4828 175.294 90.6333C175.542 91.8356 177.29 91.324 177.048 90.1217C176.189 85.9137 175.332 81.7056 174.477 77.4976C177.048 76.3592 179.426 74.8308 181.186 72.5924C182.829 70.5244 183.712 67.8997 183.673 65.1994C183.634 62.4991 182.676 59.904 180.974 57.8898ZM155.542 38.3845C155.524 38.3077 155.506 38.231 155.494 38.1543C156.129 38.0327 156.764 37.9048 157.399 37.7833C160.182 37.2397 162.959 36.6258 165.754 36.1718C168.022 35.8072 170.454 35.6026 172.662 36.3892C177.042 37.9496 177.944 43.539 176.207 47.5872C175.687 48.7959 174.683 49.5633 173.594 50.2796C172.077 51.2412 170.501 52.0937 168.875 52.8312C166.97 53.7329 165.034 54.5516 163.104 55.4021C161.918 55.9265 160.696 56.4445 159.553 57.084C159.368 57.1762 159.189 57.2786 159.014 57.391C157.974 51.0342 156.816 44.6987 155.542 38.3845ZM180.279 70.725C177.435 74.9587 172.045 76.5639 167.538 77.779C165.729 78.2714 163.909 78.6871 162.069 79.0388C161.283 72.4389 160.367 65.8625 159.323 59.3096C159.467 59.2971 159.606 59.2489 159.728 59.1689C159.916 59.0474 160.103 58.9451 160.297 58.8364C161.301 58.3699 162.355 58.0369 163.437 57.8451C165.26 57.4541 167.108 57.2062 168.966 57.1033C170.866 56.9657 172.773 56.985 174.671 57.1608C175.984 57.2951 177.441 57.5126 178.561 58.184C180.2 59.1625 181.392 61.7334 181.761 63.7927C181.97 64.9941 181.946 66.2278 181.691 67.4193C181.437 68.6108 180.956 69.7353 180.279 70.725H180.279Z" fill="white"/>
<path d="M169.117 215.858C168.131 215.57 167.155 215.252 166.189 214.905C158.312 212.018 151.11 207.384 145.064 201.315C139.021 195.3 134.211 188.036 130.932 179.974C129.294 175.936 128.086 171.716 127.333 167.395C126.924 164.939 126.635 162.463 126.468 159.977C126.256 156.952 126.183 153.907 126.147 150.876C126.068 144.008 126.171 136.986 125.185 130.181C124.66 126.237 123.649 122.382 122.178 118.715C118.627 110.092 112.572 102.888 104.889 98.1476C103.878 97.5273 104.792 95.8709 105.802 96.4913C106.74 97.0668 107.659 97.6744 108.555 98.3267C115.842 103.64 121.433 111.166 124.586 119.911C125.705 123.094 126.504 126.393 126.97 129.753C128.065 137.242 127.859 144.967 127.986 152.52C128.028 155.091 128.113 157.668 128.307 160.239C128.491 163.006 128.849 165.758 129.377 168.476C130.228 172.724 131.529 176.858 133.255 180.799C136.761 188.744 141.799 195.826 148.046 201.59C154.269 207.368 161.63 211.611 169.595 214.01C170.72 214.342 170.242 216.197 169.117 215.858Z" fill="#3F3D56"/>
<path d="M100.273 99.0238C94.6417 101.663 88.4961 102.844 82.3465 102.469C76.1969 102.093 70.2208 100.172 64.9146 96.865C59.6084 93.5577 55.1252 88.9598 51.8375 83.4531C48.5498 77.9464 46.5524 71.6899 46.0113 65.2034C45.4701 58.7168 46.4009 52.1873 48.7262 46.1574C51.0514 40.1274 54.7042 34.771 59.3809 30.533C64.0577 26.295 69.6235 23.2978 75.616 21.7904C81.6086 20.283 87.8548 20.3088 93.836 21.8657C93.6606 22.1215 93.4912 22.3901 93.3279 22.6587C92.4309 24.1317 91.7458 25.7373 91.2952 27.4231C92.4706 25.9323 93.8512 24.6367 95.3908 23.5796C95.423 23.5566 95.4575 23.5373 95.4936 23.522C95.6449 23.4197 95.7961 23.3174 95.9534 23.215C96.2075 23.0488 96.4616 22.8953 96.7217 22.7482C102.225 24.6666 107.25 27.8661 111.428 32.1108C110.846 32.533 110.291 32.9945 109.765 33.4922C109.183 34.0381 108.637 34.6257 108.131 35.2509C107.998 35.4107 107.865 35.5834 107.738 35.7497C107.55 35.9927 107.375 36.2357 107.206 36.4851C107.187 36.5171 107.163 36.5427 107.145 36.5747C106.97 36.8305 106.8 37.099 106.637 37.3677C105.74 38.8406 105.055 40.4463 104.604 42.1321C105.78 40.6413 107.16 39.3457 108.7 38.2886C108.732 38.2656 108.767 38.2463 108.803 38.231C108.954 38.1287 109.105 38.0264 109.262 37.9241C109.517 37.7578 109.771 37.6043 110.031 37.4572C110.46 37.2078 110.902 36.9775 111.35 36.7601C111.41 36.7346 111.471 36.7025 111.531 36.677C112.487 36.2345 113.477 35.8773 114.489 35.609C118.275 40.4847 120.945 46.219 122.29 52.3648C123.634 58.5105 123.618 64.9015 122.242 71.0395C120.866 77.1775 118.167 82.8965 114.357 87.7507C110.546 92.6048 105.726 96.4628 100.273 99.0238L100.273 99.0238Z" fill="black"/>
<path d="M109.051 86.988C106.655 83.509 104.257 80.03 101.858 76.5511C103.776 74.4087 105.361 71.9913 106.117 69.1902C106.825 66.5952 106.624 63.8175 105.552 61.3662C104.48 58.9148 102.608 56.9541 100.279 55.8434C96.9032 54.2638 93.0072 56.1312 89.9038 57.666C89.0932 58.0625 88.3006 58.491 87.5142 58.9387C87.7743 58.6445 88.0466 58.3503 88.3067 58.0497C89.635 56.5563 90.8678 54.9711 91.9969 53.3045C92.7834 52.1022 93.6182 50.708 93.7514 49.2179C94.1869 44.5367 91.4706 39.1839 86.9637 38.0455C83.8602 37.2589 80.8838 38.4548 78.1434 40.1624C78.1024 40.0466 78.0408 39.9402 77.9619 39.849C75.3765 36.9155 73.4476 33.4055 72.3176 29.5783C72.2191 29.3465 72.0379 29.1653 71.8135 29.0742C71.5891 28.9832 71.3397 28.9896 71.1198 29.0923C70.9031 29.1995 70.7342 29.3913 70.6484 29.6274C70.5627 29.8635 70.5668 30.1256 70.66 30.3585C71.8463 34.346 73.8593 38.0033 76.5523 41.0641C76.5831 41.0937 76.6154 41.1214 76.6491 41.1472C75.3545 42.0489 74.1143 43.0018 72.9528 43.846C71.4162 44.9588 69.8796 46.0715 68.343 47.1843C65.8929 43.6605 63.4025 40.1687 60.8717 36.7089C60.1518 35.7369 58.7483 36.952 59.4682 37.924C61.9728 41.3391 64.435 44.7861 66.8548 48.2651C62.8863 51.1365 58.9177 54.008 54.9492 56.8794C53.9873 57.5765 55.1367 59.0602 56.0986 58.3695C60.0369 55.5172 63.9772 52.665 67.9195 49.8127C75.1185 60.2561 81.9122 70.9979 88.3006 82.0381C88.7422 82.7992 89.1657 83.5666 89.6013 84.3276C85.7704 86.9573 81.7372 89.242 77.5444 91.1577C76.4737 91.6502 77.2057 93.4025 78.2825 92.91C82.541 90.9604 86.6386 88.6394 90.533 85.9712C92.2571 89.0281 93.9631 92.0978 95.6267 95.1931C96.1954 96.2547 97.8651 95.4873 97.2843 94.4129C95.5722 91.2281 93.8239 88.0645 92.0393 84.9224C93.2976 84.0207 94.5358 83.0827 95.7538 82.1085C97.4204 80.7961 99.0236 79.3959 100.557 77.9132C102.923 81.3411 105.286 84.7711 107.647 88.2031C108.331 89.2008 109.734 87.9857 109.051 86.988ZM80.0127 64.7967C76.6249 59.4247 73.1384 54.1295 69.553 48.911C69.5106 48.8471 69.4622 48.7831 69.4198 48.7256C69.9522 48.3354 70.4846 47.9517 71.023 47.5616C73.3521 45.8733 75.657 44.1274 78.0405 42.5094C79.9704 41.2048 82.1179 39.9769 84.435 39.7531C89.0387 39.299 92.0091 44.0186 91.9728 48.4633C91.9607 49.7999 91.3375 50.9255 90.6177 52.0447C89.6009 53.5761 88.4851 55.0313 87.2783 56.3998C85.8808 58.0433 84.4289 59.623 82.9952 61.2282C82.1059 62.213 81.1924 63.2107 80.3878 64.2851C80.2547 64.4514 80.1337 64.6176 80.0127 64.7967ZM95.6267 79.7807C94.1627 81.0021 92.6503 82.1661 91.1137 83.2724C87.8651 77.5807 84.5055 71.9615 81.0351 66.4147C81.1619 66.3436 81.27 66.2403 81.3497 66.1141C81.4767 65.9286 81.6098 65.7496 81.7429 65.5705C82.481 64.715 83.3161 63.9589 84.2292 63.3194C85.7473 62.18 87.3427 61.1604 89.0024 60.2689C90.6887 59.3321 92.4401 58.5325 94.2414 57.8771C95.4936 57.4358 96.9093 57.0137 98.1857 57.1416C100.061 57.3335 102.136 59.1753 103.267 60.902C103.918 61.9112 104.368 63.0489 104.592 64.2469C104.815 65.4448 104.807 66.6782 104.568 67.8728C103.588 72.9634 99.2807 76.7365 95.6267 79.7807Z" fill="white"/>
<path d="M211.685 57.2609C209.114 66.7102 209.849 76.822 213.755 85.7453C217.66 94.6687 224.475 101.807 232.952 105.853C241.429 109.899 251.001 110.582 259.915 107.778C268.83 104.973 276.49 98.8687 281.495 90.5814C286.5 82.2942 288.515 72.3786 287.17 62.6498C285.824 52.921 281.21 44.0297 274.17 37.6035C267.131 31.1774 258.138 27.6462 248.837 27.6564C239.536 27.6665 230.55 31.2174 223.523 37.659C223.939 38.3539 224.31 39.0782 224.632 39.8269C224.718 40.0195 224.801 40.2243 224.879 40.4213C224.996 40.7097 225.101 40.9945 225.198 41.2838C225.315 41.6187 225.418 41.9563 225.514 42.2982C225.99 43.9761 226.228 45.7195 226.219 47.4713C225.48 45.6948 224.493 44.0458 223.29 42.5795C223.265 42.548 223.237 42.5194 223.206 42.4941C223.088 42.3515 222.969 42.2089 222.845 42.0646C222.312 41.4516 221.744 40.8741 221.144 40.3354C221.093 40.2931 221.043 40.2447 220.992 40.2024C216.614 44.9968 213.418 50.8546 211.685 57.2609Z" fill="black"/>
<path d="M233.57 107.645C232.692 108.361 231.843 109.115 231.023 109.908C224.441 116.298 219.966 124.747 218.252 134.018C218.131 134.683 218.028 135.355 217.937 136.026C216.534 146.374 218.651 156.875 219.686 167.158C219.722 167.51 219.758 167.855 219.789 168.207C220.308 173.03 220.371 177.895 219.976 182.731C219.559 187.1 218.693 191.408 217.393 195.579C214.772 203.898 210.582 211.569 205.076 218.128C199.576 224.736 192.78 229.997 185.161 233.547C184.102 234.033 183.177 232.377 184.247 231.891C185.197 231.449 186.141 230.989 187.066 230.496C194.438 226.512 200.9 220.877 206.002 213.984C211.112 207.145 214.796 199.24 216.812 190.789C217.832 186.511 218.375 182.122 218.427 177.71C218.446 174.723 218.313 171.736 218.028 168.763C217.798 166.167 217.484 163.571 217.169 160.981C216.171 152.859 215.167 144.609 216.086 136.506C216.369 133.967 216.862 131.458 217.562 129.011C220.157 120.025 225.294 112.095 232.281 106.289C233.195 105.534 234.489 106.884 233.57 107.645Z" fill="#3F3D56"/>
<path d="M270.515 58.6381C269.414 55.9713 267.526 53.8097 265.354 51.9615C267.278 48.1691 269.204 44.3768 271.132 40.5844C271.676 39.4972 270.133 38.4996 269.577 39.5804C267.683 43.3216 265.788 47.0628 263.89 50.804C262.179 49.5539 260.408 48.397 258.585 47.3377C257.26 46.5512 255.911 45.7965 254.544 45.093C255.905 41.7164 257.236 38.3269 258.512 34.9247C258.948 33.7799 257.199 33.2619 256.77 34.3939C255.524 37.7002 254.229 40.9873 252.916 44.2617C248.714 42.1813 244.355 40.4743 239.885 39.1583C238.754 38.8258 238.252 40.6676 239.383 41.0001C243.78 42.2959 248.068 43.975 252.202 46.0204C251.876 46.8454 251.549 47.6639 251.21 48.4825C246.328 60.3328 240.986 71.9572 235.185 83.3556C230.914 81.0917 226.643 78.8342 222.372 76.5831C221.331 76.0331 220.376 77.6639 221.422 78.2202C225.723 80.4905 230.025 82.763 234.326 85.0375C232.378 88.8363 230.384 92.6052 228.343 96.3442C227.756 97.4186 229.311 98.4163 229.892 97.3483C231.96 93.5559 233.969 89.738 235.947 85.8945L240.944 88.5357C242.202 89.1944 243.545 89.9682 244.949 90.6717C244.919 90.7037 244.895 90.7293 244.864 90.7676C242.595 94.1922 241.072 98.1063 240.406 102.228C240.347 102.473 240.378 102.732 240.494 102.953C240.61 103.174 240.801 103.34 241.029 103.417C241.261 103.485 241.508 103.454 241.718 103.33C241.929 103.207 242.085 103.002 242.154 102.759C242.778 98.8045 244.236 95.0495 246.419 91.7717C246.487 91.6699 246.534 91.5546 246.558 91.4327C249.498 92.7246 252.59 93.4856 255.572 92.2577C259.892 90.4862 261.888 84.7881 260.853 80.2092C260.527 78.751 259.516 77.4912 258.585 76.4104C257.251 74.9228 255.824 73.5319 254.314 72.2471C254.017 71.9913 253.715 71.7355 253.412 71.4797C254.247 71.8058 255.094 72.1192 255.947 72.4006C259.22 73.4686 263.322 74.7604 266.461 72.7076C268.625 71.2698 270.225 69.0559 270.97 66.4718C271.714 63.8877 271.553 61.1065 270.515 58.6381ZM253.515 74.025C254.883 75.2118 256.174 76.4937 257.381 77.8621C258.24 78.8661 259.002 79.8958 259.184 81.2132C259.795 85.6067 257.466 90.7164 252.85 90.9339C250.521 91.0426 248.234 90.1345 246.153 89.1241C243.582 87.8706 241.077 86.4636 238.542 85.127C237.968 84.8265 237.387 84.5195 236.812 84.2125C236.844 84.1417 236.88 84.0733 236.921 84.0079C239.801 78.3161 242.571 72.5668 245.233 66.76C245.371 66.9193 245.516 67.0709 245.669 67.2141C246.6 68.1606 247.641 69.0175 248.639 69.8681C250.273 71.2494 251.918 72.6052 253.515 74.025ZM268.766 67.2652C267.871 69.1326 266.056 71.2558 264.223 71.7163C262.971 72.036 261.513 71.8186 260.218 71.5628C258.348 71.1775 256.509 70.6365 254.719 69.9448C252.961 69.3041 251.25 68.5261 249.601 67.617C248.612 67.1155 247.685 66.4861 246.842 65.7432C246.685 65.5833 246.534 65.4298 246.383 65.2571C246.284 65.1477 246.165 65.0626 246.032 65.0077C248.754 59.0154 251.355 52.9634 253.836 46.8517C255.512 47.7279 257.153 48.6637 258.76 49.6592C262.771 52.147 267.532 55.2678 269.159 60.1665C269.551 61.3165 269.718 62.5384 269.65 63.7584C269.583 64.9785 269.282 66.1714 268.766 67.2652V67.2652Z" fill="white"/>
<path d="M169.986 131.13C167.77 125.479 163.616 120.72 159.959 115.834C155.512 109.882 146.359 112.628 145.761 120.182C149.865 121.608 150.398 127.875 145.704 128.732C146.902 142.405 155.156 155.014 166.629 161.351L172.303 150.143C173.07 143.761 171.929 136.082 169.986 131.13Z" fill="#3F3D56"/>
<path d="M172.301 150.17C172.364 150.037 172.427 149.905 172.49 149.773L172.303 150.143L172.301 150.17Z" fill="#2F2E41"/>
<path d="M212.938 179.094C210.722 173.443 206.569 168.684 202.911 163.798C198.464 157.846 189.312 160.592 188.713 168.146C192.817 169.572 193.35 175.839 188.656 176.696C189.854 190.37 198.108 202.978 209.581 209.315L215.256 198.107C216.022 191.725 214.882 184.046 212.938 179.094Z" fill="#3F3D56"/>
<path d="M227.297 164.267C231.818 168.086 237.628 170.134 243.062 172.546C249.675 175.49 256.436 168.415 253.511 161.494C249.266 162.339 245.937 157.123 249.657 153.976C242.364 142.613 229.378 135.782 216.437 136.087L216.585 148.799C218.827 154.779 223.333 160.922 227.297 164.267Z" fill="#3F3D56"/>
<path d="M117.247 164.907C112.726 168.725 106.915 170.774 101.482 173.186C94.869 176.129 88.1074 169.054 91.0325 162.133C95.2781 162.979 98.6062 157.762 94.8867 154.616C102.18 143.253 115.165 136.422 128.107 136.727L127.959 149.438C125.716 155.418 121.211 161.561 117.247 164.907Z" fill="#3F3D56"/>
<path d="M215.253 198.134C215.316 198.001 215.379 197.869 215.443 197.737L215.255 198.107L215.253 198.134Z" fill="#2F2E41"/>
<path d="M289.026 82.0127L287.816 86.4894L288.421 105.035L313.83 96.7214L316.381 78.9481L289.026 82.0127Z" fill="#9E616A"/>
<path d="M270.629 221.538L264.339 220.245L266.065 193.983L275.348 195.892L270.629 221.538Z" fill="#9E616A"/>
<path d="M273.363 218.694L271.255 218.124L264.594 216.311L263.537 216.022L262.708 220.53L251.985 225.485C251.455 225.729 251.012 226.146 250.722 226.675C250.432 227.204 250.31 227.817 250.373 228.425C250.436 229.032 250.682 229.603 251.073 230.052C251.465 230.502 251.982 230.808 252.55 230.924L264.391 233.358L267.248 229.32L267.229 233.942L271.689 234.859L273.363 218.694Z" fill="#2F2E41"/>
<path d="M351.546 217.041L345.376 218.871L335.763 194.586L344.868 191.886L351.546 217.041Z" fill="#9E616A"/>
<path d="M352.78 213.202L350.655 213.693L343.933 215.236L342.866 215.479L344.04 219.9L336.563 229.418C336.193 229.888 335.975 230.47 335.941 231.08C335.906 231.69 336.057 232.296 336.372 232.809C336.686 233.322 337.148 233.715 337.689 233.931C338.229 234.147 338.822 234.175 339.378 234.009L350.993 230.564L351.83 225.599L353.777 229.738L358.151 228.44L352.78 213.202Z" fill="#2F2E41"/>
<path d="M287.211 101.198L315.911 91.8578C315.911 91.8578 315.04 94.803 318.648 101.139C322.417 107.759 324.554 115.484 324.636 121.567C324.813 134.727 326.48 147.817 330.209 160.374L330.533 161.464C330.533 161.464 339.225 168.96 342.868 184.975L350.361 204.423L341.053 207.359L316.676 168.529L314.359 166.547C312.674 165.105 311.301 163.297 310.333 161.245C309.366 159.193 308.827 156.946 308.752 154.654L301.43 141.832L295.987 153.12L287.187 166.354L281.816 185.844C280.196 194.924 278.854 203.424 273.297 210.556L263.246 209.136L270.273 164.511L276.57 145.118L281.292 130.576L284.187 121.663L287.211 101.198Z" fill="#2F2E41"/>
<path d="M285.455 91.8621C285.071 94.4182 285.692 96.7831 285.381 99.8023C285.329 100.302 284.122 101.473 284.085 101.97C283.996 103.155 284.884 103.644 284.911 104.768C284.933 105.645 284.066 107.173 284.184 107.98C285.427 116.478 292.661 120.252 319.199 102.285C319.199 102.285 321.548 100.795 319.927 97.7427C319.495 96.9287 321.383 95.9812 321.548 94.837C321.672 93.9676 320.642 92.8371 320.775 91.8579C320.933 90.7021 321.094 89.4755 321.256 88.1915C323.373 71.4366 325.574 44.9002 319.424 38.2532L315.951 31.4904L302.94 33.8312L302.895 39.633L293.644 49.8325C293.644 49.8325 284.68 59.5941 287.729 69.0175C289.942 78.0758 289.12 82.1379 285.455 91.8621Z" fill="#3F3D56"/>
<path d="M312.014 52.8207C311.053 52.5225 310.046 52.4275 309.051 52.5413C308.055 52.6551 307.09 52.9753 306.212 53.4837C305.333 53.9921 304.558 54.6787 303.931 55.5041C303.304 56.3295 302.837 57.2776 302.557 58.294L296.673 79.6452L277.791 93.9404C277.008 93.806 276.206 93.9065 275.476 94.2303C274.745 94.5541 274.115 95.0883 273.657 95.772C273.199 96.4558 272.932 97.2617 272.886 98.0979C272.841 98.9341 273.018 99.7672 273.398 100.502C273.778 101.237 274.345 101.845 275.036 102.256C275.726 102.666 276.512 102.864 277.304 102.826C278.095 102.788 278.861 102.516 279.513 102.041C280.166 101.565 280.679 100.906 280.994 100.138L306.292 86.6615L316.714 64.0754C317.2 63.0226 317.463 61.8704 317.484 60.6992C317.505 59.528 317.284 58.366 316.836 57.2944C316.389 56.2227 315.726 55.2673 314.893 54.4946C314.06 53.7219 313.078 53.1506 312.014 52.8207Z" fill="#9E616A"/>
<path d="M309.948 83.4447L296.842 76.8471L296.797 76.7366C296.503 76.0176 296.42 75.2216 296.56 74.4523C296.7 73.6831 297.057 72.9763 297.582 72.4242L297.713 72.2855L302.855 53.4197L304.638 51.5349L304.657 50.1703C304.712 46.0446 305.066 41.9577 307.259 40.0063C308.498 38.9034 310.196 38.5515 312.449 38.9283C314.066 39.199 315.606 39.8506 316.953 40.8351C318.3 41.8197 319.421 43.1118 320.232 44.616C321.043 46.1202 321.524 47.7979 321.639 49.525C321.753 51.2521 321.499 52.9845 320.895 54.5938L320.539 55.5156L318.576 58.3172L317.933 63.306L316.097 65.8934L309.948 83.4447Z" fill="#3F3D56"/>
<path d="M292.352 33.5653L295.132 33.3079C294.814 32.1488 294.616 30.9564 294.542 29.7519C295.179 31.0493 296.059 32.1958 297.13 33.1213L313.075 31.6337L322.777 10.9369C320.467 2.91693 314.486 -1.80361 306.939 0.650509C306.484 0.798435 306.02 0.974863 305.556 1.17628C301.269 1.78078 297.371 4.12027 294.682 7.70222C291.994 11.2842 290.725 15.8291 291.143 20.3802C287.414 27.6874 290.306 30.33 292.352 33.5653Z" fill="#2F2E41"/>
<path d="M303.33 30.0443C309.382 30.0443 314.288 24.8579 314.288 18.4602C314.288 12.0625 309.382 6.87616 303.33 6.87616C297.278 6.87616 292.372 12.0625 292.372 18.4602C292.372 24.8579 297.278 30.0443 303.33 30.0443Z" fill="#9E616A"/>
<path d="M288.651 15.2606C289.825 16.1408 293.01 16.2213 296.68 15.9284C296.653 15.8549 296.631 15.7795 296.609 15.7042C296.291 14.5451 296.092 13.3527 296.018 12.1482C296.656 13.4456 297.536 14.592 298.607 15.5176C298.687 15.5867 298.767 15.6558 298.852 15.7231C301.974 15.3802 305.225 14.843 307.757 14.3686C307.938 21.2987 303.033 28.6268 304.859 32.2823L324.879 30.2241C324.294 28.6487 323.944 26.9867 323.842 25.2976C324.806 27.2571 326.315 28.8578 328.164 29.8852L329.866 29.7124L329.619 27.0718C330.699 15.2355 321.813 6.36692 310.758 3.87964C308.3 1.76022 305.147 0.755949 301.99 1.08637L299.491 1.34109C297.915 1.50258 296.384 1.99073 294.986 2.77766C293.588 3.56459 292.35 4.63488 291.344 5.92744C290.337 7.21999 289.581 8.70949 289.119 10.3109C288.657 11.9123 288.498 13.5942 288.651 15.2606Z" fill="#2F2E41"/>
<path d="M305.589 1.75979C308.096 2.22952 310.368 3.61325 312.009 5.67031C313.651 7.72738 314.558 10.3276 314.574 13.0188C314.58 13.2119 314.657 13.3948 314.789 13.529C314.92 13.6633 315.096 13.7383 315.278 13.7383C315.461 13.7383 315.637 13.6633 315.768 13.529C315.9 13.3948 315.977 13.2119 315.983 13.0188C315.967 10.0021 314.959 7.08514 313.13 4.76864C311.302 2.45213 308.768 0.88049 305.964 0.323408C305.077 0.154588 304.697 1.58985 305.589 1.75979H305.589Z" fill="#FD6584"/>
</svg>
