<svg width="405" height="220" viewBox="0 0 405 220" fill="none" xmlns="http://www.w3.org/2000/svg">
<path d="M162.561 213.282V176.028H150.491V213.282C149.324 213.955 148.354 214.924 147.68 216.09C147.006 217.257 146.651 218.581 146.651 219.929H166.401C166.401 218.581 166.046 217.257 165.372 216.09C164.697 214.924 163.728 213.955 162.561 213.282Z" fill="black"/>
<path d="M194.929 213.282V176.028H182.86V213.282C181.692 213.955 180.723 214.924 180.049 216.09C179.375 217.257 179.019 218.581 179.019 219.929H198.769C198.769 218.581 198.414 217.257 197.74 216.09C197.066 214.924 196.096 213.955 194.929 213.282Z" fill="black"/>
<path d="M172.449 210.725C216.519 210.725 252.246 174.989 252.246 130.907C252.246 86.8244 216.519 51.0886 172.449 51.0886C128.378 51.0886 92.6518 86.8244 92.6518 130.907C92.6518 174.989 128.378 210.725 172.449 210.725Z" fill="black"/>
<path d="M172.449 181.447C189.911 181.447 204.066 176.727 204.066 170.905C204.066 165.082 189.911 160.363 172.449 160.363C154.987 160.363 140.831 165.082 140.831 170.905C140.831 176.727 154.987 181.447 172.449 181.447Z" fill="white"/>
<path d="M143.842 126.389C151.326 126.389 157.393 120.32 157.393 112.835C157.393 105.349 151.326 99.2807 143.842 99.2807C136.359 99.2807 130.292 105.349 130.292 112.835C130.292 120.32 136.359 126.389 143.842 126.389Z" fill="white"/>
<path d="M201.055 126.389C208.539 126.389 214.606 120.32 214.606 112.835C214.606 105.349 208.539 99.2807 201.055 99.2807C193.572 99.2807 187.505 105.349 187.505 112.835C187.505 120.32 193.572 126.389 201.055 126.389Z" fill="white"/>
<path d="M144.11 123.212C149.931 123.212 154.65 118.492 154.65 112.67C154.65 106.848 149.931 102.128 144.11 102.128C138.29 102.128 133.571 106.848 133.571 112.67C133.571 118.492 138.29 123.212 144.11 123.212Z" fill="#3F3D56"/>
<path d="M201.195 123.212C207.016 123.212 211.735 118.492 211.735 112.67C211.735 106.848 207.016 102.128 201.195 102.128C195.375 102.128 190.656 106.848 190.656 112.67C190.656 118.492 195.375 123.212 201.195 123.212Z" fill="#3F3D56"/>
<path d="M172.449 88.4581C201.552 88.4581 225.145 70.2531 225.145 47.796C225.145 25.339 201.552 7.13391 172.449 7.13391C143.346 7.13391 119.753 25.339 119.753 47.796C119.753 70.2531 143.346 88.4581 172.449 88.4581Z" fill="#3F3D56"/>
<path d="M172.449 19.7555C183.962 19.7555 193.296 15.3331 193.296 9.87774C193.296 4.42241 183.962 0 172.449 0C160.935 0 151.601 4.42241 151.601 9.87774C151.601 15.3331 160.935 19.7555 172.449 19.7555Z" fill="#3F3D56"/>
<path d="M173.031 142.544C176.5 139.028 181.834 138.958 186.338 140.116C191.707 141.496 196.277 144.821 201.248 147.139C203.77 148.38 206.468 149.222 209.247 149.635C213.139 150.104 217.084 149.475 220.636 147.818C224.188 146.161 227.206 143.542 229.348 140.259C230.918 137.759 231.95 134.959 232.379 132.038C232.808 129.117 232.624 126.139 231.84 123.293C231.776 123.089 231.635 122.918 231.448 122.816C231.26 122.714 231.041 122.688 230.835 122.745C230.629 122.802 230.453 122.936 230.345 123.12C230.236 123.304 230.203 123.523 230.253 123.73C231.637 128.737 230.977 134.089 228.418 138.609C226.475 141.908 223.598 144.556 220.151 146.221C216.703 147.885 212.84 148.49 209.049 147.959C206.329 147.48 203.696 146.589 201.243 145.318C196.437 142.964 191.925 139.828 186.678 138.504C181.623 137.228 175.734 137.461 171.867 141.38C171.122 142.135 172.285 143.3 173.031 142.544V142.544Z" fill="#3F3D56"/>
<path d="M173.031 141.38C169.613 137.916 164.588 137.336 159.99 138.128C154.715 139.036 150.177 141.908 145.518 144.367C140.757 146.88 135.682 148.802 130.216 147.926C127.693 147.545 125.271 146.669 123.089 145.346C120.906 144.024 119.008 142.282 117.502 140.222C115.84 137.854 114.722 135.147 114.228 132.296C113.735 129.445 113.877 126.52 114.645 123.73C114.694 123.523 114.661 123.304 114.553 123.12C114.444 122.936 114.268 122.802 114.063 122.745C113.857 122.688 113.637 122.714 113.45 122.816C113.262 122.918 113.122 123.089 113.058 123.293C111.65 128.409 112.202 133.867 114.607 138.598C117.024 143.275 121.144 146.847 126.116 148.576C131.28 150.414 136.732 150.02 141.763 147.964C146.934 145.851 151.515 142.401 156.826 140.628C161.729 138.991 167.941 138.565 171.867 142.544C172.612 143.299 173.776 142.135 173.031 141.38V141.38Z" fill="#3F3D56"/>
<path d="M172.465 147.892C175.798 147.892 178.5 145.189 178.5 141.855C178.5 138.521 175.798 135.819 172.465 135.819C169.132 135.819 166.43 138.521 166.43 141.855C166.43 145.189 169.132 147.892 172.465 147.892Z" fill="#3F3D56"/>
<path d="M139.519 111.274C140.731 111.274 141.713 110.291 141.713 109.079C141.713 107.866 140.731 106.883 139.519 106.883C138.307 106.883 137.324 107.866 137.324 109.079C137.324 110.291 138.307 111.274 139.519 111.274Z" fill="white"/>
<path d="M206.45 111.274C207.662 111.274 208.645 110.291 208.645 109.079C208.645 107.866 207.662 106.883 206.45 106.883C205.238 106.883 204.256 107.866 204.256 109.079C204.256 110.291 205.238 111.274 206.45 111.274Z" fill="white"/>
<path d="M30.3686 195.192C30.587 203.353 31.9534 211.441 34.4278 219.22C34.4843 219.401 34.5436 219.578 34.6028 219.759H49.7515C49.7353 219.597 49.7192 219.417 49.703 219.22C48.6929 207.605 42.8694 136.912 49.8323 124.823C49.2236 125.804 29.1942 158.286 30.3686 195.192Z" fill="#E6E6E6"/>
<path d="M31.5052 219.22C31.6318 219.401 31.7638 219.581 31.8985 219.759H43.2627C43.1765 219.605 43.0768 219.425 42.961 219.22C41.0836 215.831 35.5267 205.698 30.3686 195.193C24.8252 183.903 19.7397 172.186 20.168 167.945C20.036 168.902 16.2004 198.059 31.5052 219.22Z" fill="#E6E6E6"/>
<path d="M374.875 219.38L343.056 198.153V33.898C343.056 33.6069 342.94 33.3278 342.734 33.1219C342.529 32.9161 342.249 32.8005 341.958 32.8005H340.313C340.022 32.8005 339.742 32.9161 339.537 33.1219C339.331 33.3278 339.215 33.6069 339.215 33.898V197.426L306.305 219.38L310.513 219.326L339.215 200.071V219.38H343.056V200.803L370.667 219.326L374.875 219.38Z" fill="#3F3D56"/>
<path d="M285.451 49.8121C285.16 49.8124 284.881 49.9282 284.676 50.1339C284.47 50.3397 284.354 50.6186 284.354 50.9096V149.687C284.354 149.978 284.47 150.257 284.676 150.463C284.881 150.669 285.16 150.784 285.451 150.785H396.82C397.111 150.784 397.39 150.669 397.596 150.463C397.801 150.257 397.917 149.978 397.917 149.687V50.9096C397.917 50.6186 397.801 50.3397 397.596 50.1339C397.39 49.9282 397.111 49.8124 396.82 49.8121H285.451Z" fill="#E6E6E6"/>
<path d="M334.92 48.7146C335.034 49.0354 335.244 49.313 335.522 49.5095C335.8 49.706 336.132 49.8117 336.472 49.8121H346.347C346.688 49.8117 347.019 49.706 347.297 49.5095C347.575 49.313 347.786 49.0354 347.899 48.7146H334.92Z" fill="#3F3D56"/>
<path d="M312.427 151.882H370.393C370.279 151.561 370.069 151.284 369.791 151.087C369.513 150.891 369.181 150.785 368.841 150.784H313.979C313.639 150.785 313.307 150.891 313.029 151.087C312.751 151.284 312.541 151.561 312.427 151.882Z" fill="#3F3D56"/>
<path opacity="0.3" d="M314.599 100.096C323.033 100.096 329.87 93.2568 329.87 84.8208C329.87 76.3848 323.033 69.5461 314.599 69.5461C306.165 69.5461 299.328 76.3848 299.328 84.8208C299.328 93.2568 306.165 100.096 314.599 100.096Z" fill="black"/>
<path opacity="0.3" d="M350.146 116.953C358.58 116.953 365.417 110.115 365.417 101.679C365.417 93.2427 358.58 86.404 350.146 86.404C341.713 86.404 334.876 93.2427 334.876 101.679C334.876 110.115 341.713 116.953 350.146 116.953Z" fill="black"/>
<path opacity="0.3" d="M329.994 124.427C342.139 124.427 351.984 114.579 351.984 102.432C351.984 90.2837 342.139 80.4359 329.994 80.4359C317.849 80.4359 308.004 90.2837 308.004 102.432C308.004 114.579 317.849 124.427 329.994 124.427Z" fill="black"/>
<path opacity="0.3" d="M323.331 132.417C335.476 132.417 345.321 122.569 345.321 110.421C345.321 98.2737 335.476 88.4259 323.331 88.4259C311.186 88.4259 301.341 98.2737 301.341 110.421C301.341 122.569 311.186 132.417 323.331 132.417Z" fill="black"/>
<path opacity="0.3" d="M363.692 138.854C375.836 138.854 385.682 129.006 385.682 116.858C385.682 104.711 375.836 94.8629 363.692 94.8629C351.547 94.8629 341.702 104.711 341.702 116.858C341.702 129.006 351.547 138.854 363.692 138.854Z" fill="black"/>
<path opacity="0.3" d="M356.749 107.131C368.894 107.131 378.739 97.2829 378.739 85.1351C378.739 72.9873 368.894 63.1395 356.749 63.1395C344.605 63.1395 334.76 72.9873 334.76 85.1351C334.76 97.2829 344.605 107.131 356.749 107.131Z" fill="black"/>
</svg>
