<svg width="289" height="261" viewBox="0 0 289 261" fill="none" xmlns="http://www.w3.org/2000/svg">
<g clip-path="url(#clip0_341_249)">
<path d="M199.71 260.343H117.708C105.408 260.343 95.402 250.376 95.402 238.126V22.2165C95.402 9.96632 105.408 0 117.708 0H199.71C212.01 0 222.016 9.96633 222.016 22.2165C223.542 108.919 226.145 206.012 222.016 238.126C222.016 250.376 212.01 260.343 199.71 260.343L199.71 260.343Z" fill="#3F3D56"/>
<path d="M223.16 79.4186C222.639 79.4186 222.216 79.8401 222.216 80.3585V110.434C222.216 110.952 222.639 111.374 223.16 111.374C223.68 111.374 224.103 110.952 224.103 110.434V80.3585C224.103 79.8401 223.68 79.4186 223.16 79.4186Z" fill="#3F3D56"/>
<path d="M219.893 22.2166V238.122C219.893 248.785 211.561 257.507 201.025 258.184H201.02C200.864 258.193 200.709 258.202 200.548 258.207C200.27 258.221 199.992 258.226 199.709 258.226C199.709 258.226 198.671 258.151 196.774 258.01C194.858 257.869 192.07 257.657 188.592 257.38C187.55 257.3 186.45 257.211 185.29 257.117C182.978 256.929 180.439 256.722 177.717 256.487C176.632 256.398 175.509 256.299 174.362 256.201C168.502 255.698 161.939 255.11 155.018 254.443C153.848 254.335 152.668 254.222 151.479 254.105C151.168 254.072 97.5255 240.641 97.5255 238.122V22.2166C97.5255 11.1121 106.561 2.11292 117.71 2.11292H129.76C131.685 2.11292 133.233 3.60729 133.398 5.51992C133.412 5.64681 133.426 5.77368 133.45 5.90057C133.799 7.82261 135.568 9.1619 137.531 9.1619H179.887C181.85 9.1619 183.619 7.82261 183.969 5.90057C183.992 5.77368 184.006 5.64682 184.02 5.51992C184.186 3.6073 185.733 2.11292 187.658 2.11292H199.709C210.858 2.11292 219.893 11.1121 219.893 22.2166H219.893Z" fill="white"/>
<path d="M94.9303 56.8619C94.4099 56.8619 93.9867 57.2834 93.9867 57.8017V65.3207C93.9867 65.839 94.4099 66.2605 94.9303 66.2605C95.4507 66.2605 95.874 65.839 95.874 65.3207V57.8017C95.874 57.2834 95.4507 56.8619 94.9303 56.8619Z" fill="#3F3D56"/>
<path d="M94.9303 79.4186C94.4099 79.4186 93.9867 79.8401 93.9867 80.3585V94.9264C93.9867 95.4447 94.4099 95.8662 94.9303 95.8662C95.4507 95.8662 95.874 95.4447 95.874 94.9264V80.3585C95.874 79.8401 95.4507 79.4186 94.9303 79.4186V79.4186Z" fill="#3F3D56"/>
<path d="M94.9303 100.096C94.4099 100.096 93.9867 100.517 93.9867 101.036V115.603C93.9867 116.122 94.4099 116.543 94.9303 116.543C95.4507 116.543 95.874 116.122 95.874 115.603V101.036C95.874 100.517 95.4507 100.096 94.9303 100.096Z" fill="#3F3D56"/>
<path d="M129.45 5.4043H111.367C111.279 5.4043 111.208 5.47505 111.208 5.56234V7.59591C111.208 7.6832 111.279 7.75396 111.367 7.75396H129.45C129.538 7.75396 129.609 7.6832 129.609 7.59591V5.56234C129.609 5.47505 129.538 5.4043 129.45 5.4043Z" fill="#E6E6E6"/>
<path d="M190.64 7.75396C191.682 7.75396 192.527 6.91238 192.527 5.87424C192.527 4.83609 191.682 3.99451 190.64 3.99451C189.598 3.99451 188.753 4.83609 188.753 5.87424C188.753 6.91238 189.598 7.75396 190.64 7.75396Z" fill="#E6E6E6"/>
<path d="M195.83 7.75396C196.872 7.75396 197.717 6.91238 197.717 5.87424C197.717 4.83609 196.872 3.99451 195.83 3.99451C194.788 3.99451 193.943 4.83609 193.943 5.87424C193.943 6.91238 194.788 7.75396 195.83 7.75396Z" fill="#E6E6E6"/>
<path d="M201.02 7.75396C202.062 7.75396 202.907 6.91238 202.907 5.87424C202.907 4.83609 202.062 3.99451 201.02 3.99451C199.978 3.99451 199.133 4.83609 199.133 5.87424C199.133 6.91238 199.978 7.75396 201.02 7.75396Z" fill="#E6E6E6"/>
<path d="M96.7453 256.412L90.9939 256.411L88.2579 234.316L96.7464 234.316L96.7453 256.412Z" fill="#FFB6B6"/>
<path d="M77.0403 256.282C76.8612 256.582 76.7667 257.552 76.7667 257.901C76.7667 258.975 77.6407 259.845 78.7188 259.845H96.5301C97.2656 259.845 97.8618 259.251 97.8618 258.519V257.78C97.8618 257.78 98.7429 255.561 96.9289 252.825C96.9289 252.825 94.6743 254.967 91.3053 251.611L90.3118 249.819L83.1203 255.057L79.1342 255.546C78.2621 255.653 77.4889 255.529 77.0404 256.282H77.0403V256.282H77.0403Z" fill="#2F2E41"/>
<path d="M64.9392 225.722L59.1878 225.703L56.5223 203.6L65.0107 203.627L64.9392 225.722Z" fill="#FFB6B6"/>
<path d="M45.2347 225.53C45.0547 225.83 44.9571 226.799 44.956 227.148C44.9526 228.222 45.8237 229.095 46.9018 229.099L64.7131 229.155C65.4485 229.157 66.0467 228.565 66.049 227.833L66.0514 227.094C66.0514 227.094 66.9396 224.877 65.1342 222.136C65.1342 222.136 62.8728 224.271 59.5145 220.905L58.5268 219.109L51.3186 224.325L47.331 224.801C46.4586 224.905 45.6858 224.779 45.2348 225.53H45.2347V225.53Z" fill="#2F2E41"/>
<path d="M88.3569 122.273L81.1956 122.782C81.1956 122.782 56.9519 136.511 54.9058 139.568C52.8598 142.625 50.0464 146.956 52.604 151.541C55.1616 156.126 53.215 211.644 53.215 211.644L65.4366 208.891L73.2671 150.803L89.6357 148.511C89.6357 148.511 95.2624 160.602 93.2163 170.605C91.1702 180.607 90.1472 186.721 90.1472 186.721L87.5896 245.82L97.5642 245.565L106.516 190.797L121.861 147.492L101.912 124.056L88.3569 122.273Z" fill="#2F2E41"/>
<path d="M123.652 59.6081L108.818 61.1365L107.283 66.2312L92.9605 73.8733L97.5642 105.97L93.9836 111.574L95.5181 117.178C95.5181 117.178 91.426 117.688 91.9375 120.745L82.7302 122.273C82.7302 122.273 94.9422 124.756 97.532 137.016C100.122 149.275 121.606 150.803 121.606 150.803L138.486 98.3279L140.02 67.2502L128.255 64.1933L123.652 59.6081Z" fill="#E6E6E6"/>
<path d="M115.834 57.6749C122.203 57.6749 127.366 52.5326 127.366 46.1894C127.366 39.8461 122.203 34.7039 115.834 34.7039C109.465 34.7039 104.302 39.8461 104.302 46.1894C104.302 52.5326 109.465 57.6749 115.834 57.6749Z" fill="#FFB6B6"/>
<path d="M109.841 56.5512C109.841 56.5512 99.6103 56.0418 100.633 47.8902C98.1012 39.2097 100.342 33.5736 108.306 31.5872C108.306 31.5872 110.352 31.0777 110.864 31.0777C117.592 31.0777 121.094 33.1156 121.094 33.1156C121.094 33.1156 120.583 31.0978 121.094 31.5972C121.606 32.0966 122.117 33.1156 122.117 33.1156C122.117 33.1156 127.232 35.6629 127.232 40.7576C127.232 45.8524 127.232 43.8145 127.232 43.8145C127.232 43.8145 126.209 43.8145 125.186 40.7576C124.163 37.7008 117.54 39.7387 117.54 39.7387L118.025 40.7576L116.49 40.2482L114.956 41.7766L113.933 41.2671C113.933 41.2671 109.841 41.2671 110.352 41.2671C110.864 41.2671 110.507 44.7294 110.507 44.7294L106.772 48.9092L110.864 56.5512H109.841Z" fill="#2F2E41"/>
<path d="M55.3361 117.359C52.4239 118.942 50.883 121.721 51.8944 123.567C52.9059 125.413 56.0866 125.626 58.9989 124.043C60.2737 123.35 61.2857 122.428 61.9359 121.455L74.1915 114.593L70.8359 108.933L59.1104 116.299C57.9372 116.317 56.6109 116.666 55.3361 117.359H55.3361Z" fill="#FFB6B6"/>
<path d="M96.6659 74.111C96.6659 74.111 91.8617 72.2892 90.2064 74.4822C88.5512 76.6752 77.6165 103.285 77.6165 103.285L61.5732 111.63L66.0847 119.455L86.7436 112.605L100.374 87.7764L96.6659 74.111Z" fill="#E6E6E6"/>
<path d="M248.163 161.501V215.505C248.163 220.281 244.262 224.166 239.467 224.166H105.449C100.654 224.166 96.7534 220.281 96.7534 215.505V161.501C96.7534 156.725 100.654 152.84 105.449 152.84H239.467C244.262 152.84 248.163 156.725 248.163 161.501Z" fill="white"/>
<path d="M248.163 161.501V215.505C248.163 220.281 244.262 224.166 239.467 224.166H105.449C100.654 224.166 96.7534 220.281 96.7534 215.505V161.501C96.7534 156.725 100.654 152.84 105.449 152.84H239.467C244.262 152.84 248.163 156.725 248.163 161.501ZM239.467 223.147C243.705 223.147 247.14 219.726 247.14 215.505V188.279C247.14 169.269 231.668 153.859 212.582 153.859H105.449C101.212 153.859 97.7764 157.281 97.7764 161.501V215.505C97.7764 219.726 101.212 223.147 105.449 223.147H239.467Z" fill="#3F3D56"/>
<path d="M156.913 185.467H139.409C138.968 185.467 138.608 185.825 138.608 186.264C138.608 186.704 138.968 187.062 139.409 187.062H156.913C157.355 187.062 157.714 186.704 157.714 186.264C157.714 185.825 157.355 185.467 156.913 185.467Z" fill="black"/>
<path d="M183.512 185.467H166.008C165.566 185.467 165.207 185.825 165.207 186.264C165.207 186.704 165.566 187.062 166.008 187.062H183.512C183.954 187.062 184.313 186.704 184.313 186.264C184.313 185.825 183.954 185.467 183.512 185.467Z" fill="black"/>
<path d="M156.913 194.183H139.409C138.968 194.183 138.608 194.54 138.608 194.98C138.608 195.419 138.968 195.777 139.409 195.777H156.913C157.355 195.777 157.714 195.419 157.714 194.98C157.714 194.54 157.355 194.183 156.913 194.183Z" fill="black"/>
<path d="M183.512 194.183H166.008C165.566 194.183 165.207 194.54 165.207 194.98C165.207 195.419 165.566 195.777 166.008 195.777H183.512C183.954 195.777 184.313 195.419 184.313 194.98C184.313 194.54 183.954 194.183 183.512 194.183Z" fill="black"/>
<path d="M210.911 194.98C210.911 194.54 210.553 194.183 210.111 194.183H192.607C192.165 194.183 191.806 194.54 191.806 194.98C191.806 195.419 192.165 195.777 192.607 195.777H210.111C210.553 195.777 210.911 195.419 210.911 194.98Z" fill="black"/>
<path d="M146.683 178.509C147.124 178.509 147.483 178.151 147.483 177.712C147.483 177.272 147.124 176.915 146.683 176.915H129.178C128.737 176.915 128.378 177.272 128.378 177.712C128.378 178.151 128.737 178.509 129.178 178.509H146.683Z" fill="black"/>
<path d="M198.233 178.185H215.738C216.179 178.185 216.538 177.827 216.538 177.387C216.538 176.948 216.179 176.59 215.738 176.59H198.233C197.792 176.59 197.433 176.948 197.433 177.387C197.433 177.827 197.792 178.185 198.233 178.185Z" fill="black"/>
<path d="M154.057 178.352H190.348C190.789 178.352 191.148 177.995 191.148 177.555C191.148 177.116 190.789 176.758 190.348 176.758H154.057C153.616 176.758 153.257 177.116 153.257 177.555C153.257 177.995 153.616 178.352 154.057 178.352Z" fill="black"/>
<path d="M168.336 202.1H150.831C150.39 202.1 150.031 202.458 150.031 202.898C150.031 203.337 150.39 203.695 150.831 203.695H168.336C168.777 203.695 169.136 203.337 169.136 202.898C169.136 202.458 168.777 202.1 168.336 202.1Z" fill="black"/>
<path d="M224.869 161.094V215.098C224.869 219.874 220.969 223.759 216.174 223.759H161.953C157.158 223.759 153.257 219.874 153.257 215.098V161.094C153.257 156.318 157.158 152.433 161.953 152.433H216.174C220.969 152.433 224.869 156.318 224.869 161.094Z" fill="white"/>
<path d="M224.869 161.094V215.098C224.869 219.874 220.969 223.759 216.174 223.759H161.953C157.158 223.759 153.257 219.874 153.257 215.098V161.094C153.257 156.318 157.158 152.433 161.953 152.433H216.174C220.969 152.433 224.869 156.318 224.869 161.094ZM212.81 222.74C218.905 222.74 223.846 217.819 223.846 211.748V187.871C223.846 168.862 208.374 153.452 189.289 153.452H161.953C157.715 153.452 154.28 156.873 154.28 161.094V207.563C154.28 215.945 161.102 222.74 169.518 222.74H212.81V222.74H212.81Z" fill="#3F3D56"/>
<path d="M196.281 174.489H178.776C178.335 174.489 177.976 174.132 177.976 173.692C177.976 173.252 178.335 172.895 178.776 172.895H196.281C196.722 172.895 197.081 173.252 197.081 173.692C197.081 174.132 196.722 174.489 196.281 174.489V174.489Z" fill="black"/>
<path d="M196.281 191.487H178.776C178.335 191.487 177.976 191.129 177.976 190.69C177.976 190.25 178.335 189.893 178.776 189.893H196.281C196.722 189.893 197.081 190.25 197.081 190.69C197.081 191.129 196.722 191.487 196.281 191.487V191.487Z" fill="black"/>
<path d="M187.585 214.923H170.081C169.639 214.923 169.28 214.565 169.28 214.125C169.28 213.686 169.639 213.328 170.081 213.328H187.585C188.026 213.328 188.385 213.686 188.385 214.125C188.385 214.565 188.026 214.923 187.585 214.923V214.923Z" fill="black"/>
<path d="M205.674 182.994H169.383C168.942 182.994 168.583 182.636 168.583 182.196C168.583 181.757 168.942 181.399 169.383 181.399H205.674C206.115 181.399 206.474 181.757 206.474 182.196C206.474 182.636 206.115 182.994 205.674 182.994V182.994Z" fill="black"/>
<path d="M214.667 131.169C214.667 114.322 200.371 105.055 184.041 100.665C163.104 95.0378 147.77 106.426 153.414 131.169C154.694 136.777 157.753 143.327 161.541 148.929H191.594C201.634 142.42 214.667 144.245 214.667 131.169H214.667Z" fill="black"/>
<path d="M183.591 163.016C185.301 159.77 187.468 157.428 189.857 155.646H161.707C168.952 165.953 178.56 172.569 183.591 163.016Z" fill="black"/>
<path d="M180.343 113.134C182.15 113.134 183.615 114.593 183.615 116.393V122.911H177.071V116.393C177.071 114.593 178.536 113.134 180.343 113.134ZM185.251 122.911V116.393C185.251 113.693 183.054 111.505 180.343 111.505C177.632 111.505 175.435 113.693 175.435 116.393V122.911C173.628 122.911 172.163 124.37 172.163 126.17V134.318C172.163 136.117 173.628 137.577 175.435 137.577H185.251C187.058 137.577 188.523 136.117 188.523 134.318V126.17C188.523 124.37 187.058 122.911 185.251 122.911H185.251ZM175.435 124.541H185.251C186.155 124.541 186.887 125.27 186.887 126.17V134.318C186.887 135.217 186.155 135.947 185.251 135.947H175.435C174.531 135.947 173.799 135.217 173.799 134.318V126.17C173.799 125.27 174.531 124.541 175.435 124.541Z" fill="white"/>
<path d="M133.583 151.08C133.189 154.361 134.568 157.224 136.665 157.474C138.761 157.724 140.78 155.267 141.175 151.986C141.347 150.549 141.18 149.194 140.762 148.102L142.258 134.178L135.683 133.618L134.906 147.403C134.24 148.366 133.756 149.644 133.583 151.08Z" fill="#FFB6B6"/>
<path d="M135.161 68.0144C135.161 68.0144 142.322 65.9765 143.857 69.0333C145.391 72.0901 148.972 112.338 148.972 112.338L142.066 144.465L134.138 142.397L138.23 109.791L132.603 85.3364L135.161 68.0144Z" fill="#E6E6E6"/>
<path d="M29.9238 165.751C46.4503 165.751 59.8477 152.407 59.8477 135.947C59.8477 119.487 46.4503 106.143 29.9238 106.143C13.3974 106.143 0 119.487 0 135.947C0 152.407 13.3974 165.751 29.9238 165.751Z" fill="black"/>
<path d="M29.9238 122.605C32.0377 122.605 33.7513 124.311 33.7513 126.417V134.041H26.0964V126.417C26.0964 124.311 27.81 122.605 29.9238 122.605ZM35.665 134.041V126.417C35.665 123.259 33.0946 120.698 29.9238 120.698C26.7531 120.698 24.1826 123.259 24.1826 126.417V134.041C22.0688 134.041 20.3552 135.748 20.3552 137.853V147.383C20.3552 149.489 22.0688 151.196 24.1826 151.196H35.665C37.7789 151.196 39.4925 149.489 39.4925 147.383V137.853C39.4925 135.748 37.7789 134.041 35.665 134.041H35.665ZM24.1826 135.947H35.665C36.722 135.947 37.5788 136.8 37.5788 137.853V147.383C37.5788 148.436 36.722 149.29 35.665 149.29H24.1826C23.1257 149.29 22.2689 148.436 22.2689 147.383V137.853C22.2689 136.8 23.1257 135.947 24.1826 135.947Z" fill="white"/>
</g>
<defs>
<clipPath id="clip0_341_249">
<rect width="289" height="261" fill="white"/>
</clipPath>
</defs>
</svg>
